<?xml version="1.0" encoding="iso-8859-1"?>
<!-- Generator: Adobe Illustrator 19.0.0, SVG Export Plug-In . SVG Version: 6.00 Build 0)  -->
<svg version="1.1" id="Layer_1" xmlns="http://www.w3.org/2000/svg" xmlns:xlink="http://www.w3.org/1999/xlink" x="0px" y="0px"
	 viewBox="0 0 512 512" style="enable-background:new 0 0 512 512;" xml:space="preserve">
<g>
	<g>
		<path d="M316.823,341.334H195.178c-4.512,0-8.17,3.657-8.17,8.17v121.645c0,4.513,3.658,8.17,8.17,8.17h121.646
			c4.512,0,8.17-3.657,8.17-8.17V349.504C324.994,344.991,321.336,341.334,316.823,341.334z M308.652,462.979H203.348V357.674
			h105.304V462.979z"/>
	</g>
</g>
<g>
	<g>
		<path d="M503.83,0H8.17C3.658,0,0,3.657,0,8.17V239.66c0,4.513,3.658,8.17,8.17,8.17s8.17-3.657,8.17-8.17V16.34H495.66V495.66
			H16.34V272.34c0-4.513-3.658-8.17-8.17-8.17S0,267.827,0,272.34V503.83c0,4.513,3.658,8.17,8.17,8.17h495.66
			c4.512,0,8.17-3.657,8.17-8.17V8.17C512,3.657,508.342,0,503.83,0z"/>
	</g>
</g>
<g>
	<g>
		<path d="M316.822,187.006H195.178c-4.512,0-8.17,3.657-8.17,8.17v121.647c0,4.513,3.658,8.17,8.17,8.17h121.645
			c4.512,0,8.17-3.657,8.17-8.17V195.177C324.993,190.663,321.334,187.006,316.822,187.006z M308.652,308.653H203.348V203.347
			h105.304V308.653z"/>
	</g>
</g>
<g>
	<g>
		<path d="M316.822,32.681H195.178c-4.512,0-8.17,3.657-8.17,8.17v121.645c0,4.513,3.658,8.17,8.17,8.17h121.645
			c4.512,0,8.17-3.657,8.17-8.17V40.851C324.993,36.338,321.334,32.681,316.822,32.681z M308.652,154.326H203.348V49.021h105.304
			V154.326z"/>
	</g>
</g>
<g>
	<g>
		<path d="M162.497,187.006H40.851c-4.512,0-8.17,3.657-8.17,8.17v121.647c0,4.513,3.658,8.17,8.17,8.17h121.646
			c4.512,0,8.17-3.657,8.17-8.17V195.177C170.667,190.663,167.009,187.006,162.497,187.006z M154.327,308.653H49.021V203.347
			h105.305V308.653z"/>
	</g>
</g>
<g>
	<g>
		<path d="M471.149,32.681H349.503c-4.512,0-8.17,3.657-8.17,8.17v121.645c0,4.513,3.658,8.17,8.17,8.17h121.646
			c4.512,0,8.17-3.657,8.17-8.17V40.851C479.319,36.338,475.661,32.681,471.149,32.681z M462.979,154.326H357.673V49.021h105.305
			V154.326z"/>
	</g>
</g>
<g>
	<g>
		<path d="M471.149,187.006H349.503c-4.512,0-8.17,3.657-8.17,8.17v121.647c0,4.513,3.658,8.17,8.17,8.17h121.646
			c4.512,0,8.17-3.657,8.17-8.17V195.177C479.319,190.663,475.661,187.006,471.149,187.006z M462.979,308.653H357.673V203.347
			h105.305V308.653z"/>
	</g>
</g>
<g>
	<g>
		<path d="M471.149,341.334H349.503c-4.512,0-8.17,3.657-8.17,8.17v121.645c0,4.513,3.658,8.17,8.17,8.17h121.646
			c4.512,0,8.17-3.657,8.17-8.17V349.504C479.319,344.991,475.661,341.334,471.149,341.334z M462.979,462.979H357.673V357.674
			h105.305V462.979z"/>
	</g>
</g>
<g>
	<g>
		<path d="M162.497,341.334H40.851c-4.512,0-8.17,3.657-8.17,8.17v121.645c0,4.513,3.658,8.17,8.17,8.17h121.646
			c4.512,0,8.17-3.657,8.17-8.17V349.504C170.667,344.991,167.009,341.334,162.497,341.334z M154.327,462.979H49.021V357.674
			h105.305V462.979z"/>
	</g>
</g>
<g>
	<g>
		<path d="M162.497,32.681H40.851c-4.512,0-8.17,3.657-8.17,8.17v121.645c0,4.513,3.658,8.17,8.17,8.17h121.646
			c4.512,0,8.17-3.657,8.17-8.17V40.851C170.667,36.338,167.009,32.681,162.497,32.681z M154.327,154.326H49.021V49.021h105.305
			V154.326z"/>
	</g>
</g>
<g>
</g>
<g>
</g>
<g>
</g>
<g>
</g>
<g>
</g>
<g>
</g>
<g>
</g>
<g>
</g>
<g>
</g>
<g>
</g>
<g>
</g>
<g>
</g>
<g>
</g>
<g>
</g>
<g>
</g>
</svg>
